<?xml version="1.0" standalone="no"?>
<!DOCTYPE svg PUBLIC "-//W3C//DTD SVG 20010904//EN"
 "http://www.w3.org/TR/2001/REC-SVG-20010904/DTD/svg10.dtd">
<svg version="1.0" xmlns="http://www.w3.org/2000/svg"
 width="700.000000pt" height="700.000000pt" viewBox="0 0 700.000000 700.000000"
 preserveAspectRatio="xMidYMid meet">
<metadata>
Created by potrace 1.11, written by Peter Selinger 2001-2013
</metadata>
<g transform="translate(0.000000,700.000000) scale(0.100000,-0.100000)"
fill="#000000" stroke="none">
<path d="M613 6985 c-304 -55 -533 -247 -598 -500 -13 -52 -15 -399 -15 -2990
0 -3215 -5 -2977 59 -3103 98 -194 321 -343 573 -382 54 -8 824 -10 2908 -8
l2835 3 78 22 c89 26 225 88 277 127 112 85 201 199 241 309 19 54 22 86 25
247 1 102 0 174 -2 160 -46 -240 -234 -428 -521 -517 l-88 -28 -2743 -3
c-3057 -3 -2814 -8 -2970 69 -198 97 -306 282 -273 466 17 90 72 193 136 251
66 60 125 95 225 130 l75 27 2770 5 2770 6 80 22 c216 62 388 190 482 359 67
120 63 -46 63 2484 0 2520 4 2342 -60 2469 -82 163 -262 299 -476 362 l-79 23
-2850 2 c-2305 1 -2864 -1 -2922 -12z m4726 -1271 c12 -15 21 -41 21 -58 0
-33 -218 -2420 -226 -2474 -6 -41 -39 -72 -78 -72 -27 0 -83 52 -461 430 -237
237 -433 430 -436 430 -4 0 -402 -396 -885 -880 -828 -829 -881 -880 -914
-880 -31 0 -54 20 -282 247 -230 230 -248 250 -248 283 0 33 47 82 882 917
l883 883 -433 433 c-408 408 -432 435 -432 468 0 23 7 42 20 54 20 18 42 21
350 50 608 56 1512 140 1765 164 165 16 335 29 377 30 71 1 78 -1 97 -25z"/>
</g>
</svg>
