<?xml version="1.0" encoding="UTF-8"?>
<svg width="88px" height="88px" viewBox="0 0 88 88" version="1.1" xmlns="http://www.w3.org/2000/svg" xmlns:xlink="http://www.w3.org/1999/xlink">
    <!-- Generator: Sketch 54.1 (76490) - https://sketchapp.com -->
    <title>learnk12</title>
    <desc>Created with Sketch.</desc>
    <g id="Page-1" stroke="none" stroke-width="1" fill="none" fill-rule="evenodd">
        <g id="learnk12" transform="translate(0.000000, -3.000000)" fill-rule="nonzero">
            <path d="M0,31 L0,39 L0,43 L0,55 L0,59 L0,79 L0,83 C0,87.42 4.37751111,91 9.77777778,91 L78.2222222,91 C83.6244444,91 88,87.42 88,83 L88,79 L88,59 L88,43 L88,31 L0,31 Z" id="Path" fill="#16A085"></path>
            <path d="M0,27 L0,35 L0,39 L0,51 L0,55 L0,75 L0,79 C0,83.4 4.37751111,87 9.77777778,87 L78.2222222,87 C83.6244444,87 88,83.4 88,79 L88,75 L88,55 L88,39 L88,27 L0,27 Z" id="Path" fill="#ECF0F1"></path>
            <path d="M0,23 L0,31 L0,35 L0,47 L0,51 L0,71 L0,75 C0,79.4 4.37751111,83 9.77777778,83 L78.2222222,83 C83.6244444,83 88,79.4 88,75 L88,71 L88,51 L88,35 L88,23 L0,23 Z" id="Path" fill="#BDC3C7"></path>
            <path d="M0,19 L0,27 L0,31 L0,43 L0,47 L0,67 L0,71 C0,75.4 4.37751111,79 9.77777778,79 L78.2222222,79 C83.6244444,79 88,75.4 88,71 L88,67 L88,47 L88,31 L88,19 L0,19 Z" id="Path" fill="#ECF0F1"></path>
            <path d="M9.77777778,3 C4.37751111,3 0,6.5816 0,11 L0,15 L0,31 L0,39 L0,43 L0,55 L0,59 L0,79 L0,83 C0,87.42 4.37751111,91 9.77777778,91 L19.5555556,91 L19.5555556,87 L12.2222222,87 C8.17226667,87 4.88888889,84.312 4.88888889,81 C4.88888889,77.688 8.17226667,75 12.2222222,75 L73.3333333,75 L78.2222222,75 C83.6244444,75 88,71.42 88,67 L88,63 L88,43 L88,27 L88,15 L88,11 C88,6.5816 83.6244444,3 78.2222222,3 L58.6666667,3 L9.77777778,3 Z" id="Path" fill="#16A085"></path>
            <path d="M24.4444444,3 L24.4444444,75 L29.3333333,75 L73.3333333,75 L78.2222222,75 C83.6244444,75 88,71.42 88,67 L88,63 L88,43 L88,27 L88,15 L88,11 C88,6.5816 83.6244444,3 78.2222222,3 L58.6666667,3 L29.3333333,3 L24.4444444,3 Z" id="Path" fill="#1ABC9C"></path>
            <path d="M74.5979797,31.5979797 L46.5979797,31.5979797 L46.5979797,19.5979797 C46.5979797,17.6619797 45.0979797,15.5979797 42.5979797,15.5979797 C40.7539797,15.5979797 39.8179797,16.7459797 38.5979797,17.7579797 L17.0979797,35.5979797 C15.5659797,36.8499797 14.5979797,37.8179797 14.5979797,39.5979797 C14.5979797,41.3779797 15.5659797,42.3499797 17.0979797,43.5979797 L38.5979797,61.4379797 C39.8179797,62.4499797 40.7539797,63.5979797 42.5979797,63.5979797 C45.0979797,63.5979797 46.5979797,61.5339797 46.5979797,59.5979797 L46.5979797,47.5979797 L74.5979797,47.5979797 C76.7979797,47.5979797 78.5979797,45.7979797 78.5979797,43.5979797 L78.5979797,35.5979797 C78.5979797,33.3979797 76.7979797,31.5979797 74.5979797,31.5979797 Z" id="Path" stroke="#16A085" stroke-width="4" fill="#FFFFFF" transform="translate(46.597980, 39.597980) rotate(-225.000000) translate(-46.597980, -39.597980) "></path>
        </g>
    </g>
</svg>